# AST/ASF file generated using VICON BodyLanguage
# -----------------------------------------------
:version 1.10
:name VICON
:units
  mass 1.0
  length 0.45
  angle deg
:documentation
   .ast/.asf automatically generated from VICON data using
   VICON BodyBuilder and BodyLanguage model FoxedUp or BRILLIANT.MOD
:root
   order TX TY TZ RX RY RZ
   axis XYZ
   position 0 0 0  
   orientation 0 0 0 
:bonedata
  begin
     id 1 
     name lhipjoint
     direction 0.627412 -0.730575 0.26947 
     length 2.49821 
     axis 0 0 0  XYZ
  end
  begin
     id 2 
     name lfemur
     direction 0.34202 -0.939693 0  
     length 6.89165  
     axis 0 0 20  XYZ
    dof rx ry rz
    limits (-160.0 20.0)
           (-70.0 70.0)
           (-60.0 70.0)
  end
  begin
     id 3 
     name ltibia
     direction 0.34202 -0.939693 0   
     length 7.91287   
     axis 0 0 20   XYZ
    dof rx
    limits (-10.0 170.0)
  end
  begin
     id 4 
     name lfoot
     direction 0.0941675 -0.258723 0.96135   
     length 2.16919   
     axis -90 7.62852e-016 20   XYZ
    dof rx rz
    limits (-45.0 90.0)
           (-70.0 20.0)
  end
  begin
     id 5 
     name ltoes
     direction 1.5347e-011 -4.21941e-011 1   
     length 1.08535   
     axis -90 7.62852e-016 20   XYZ
    dof rx
    limits (-90.0 20.0)
  end
  begin
     id 6 
     name rhipjoint
     direction -0.614241 -0.740361 0.27308   
     length 2.46519  
     axis 0 0 0  XYZ 
  end
  begin
     id 7 
     name rfemur
     direction -0.34202 -0.939693 0   
     length 7.27512   
     axis 0 0 -20   XYZ
    dof rx ry rz
    limits (-160.0 20.0)
           (-70.0 70.0)
           (-70.0 60.0)
  end
  begin
     id 8 
     name rtibia
     direction -0.34202 -0.939693 0   
     length 7.89523   
     axis 0 0 -20   XYZ
    dof rx
    limits (-10.0 170.0)
 end
 begin
     id 9 
     name rfoot
     direction -0.0860444 -0.236405 0.967837   
     length 2.29534  
     axis -90 -7.62852e-016 -20   XYZ
    dof rx rz
    limits (-45.0 90.0)
           (-20.0 70.0)
  end
  begin
     id 10 
     name rtoes
     direction -1.53608e-011 -4.21861e-011 1   
     length 1.14915   
     axis -90 -7.62852e-016 -20   XYZ
    dof rx
    limits (-90.0 20.0)
  end
  begin
     id 11 
     name lowerback
     direction -0.00734074 0.997215 -0.0742143   
     length 2.13469   
     axis 0 0 0   XYZ
    dof rx ry rz
    limits (-20.0 45.0)
           (-30.0 30.0)
           (-30.0 30.0)
  end
  begin
     id 12 
     name upperback
     direction 0.0285728 0.99958 -0.00488656   
     length 2.13416   
     axis 0 0 0   XYZ
    dof rx ry rz
    limits (-20.0 45.0)
           (-30.0 30.0)
           (-30.0 30.0)
  end
  begin
     id 13 
     name thorax
     direction 0.0316844 0.999056 0.0297249   
     length 2.14463   
     axis 0 0 0   XYZ
    dof rx ry rz
    limits (-20.0 45.0)
           (-30.0 30.0)
           (-30.0 30.0)
  end
  begin
     id 14 
     name lowerneck
     direction -0.0281545 0.996802 0.0747864   
     length 1.79004   
     axis 0 0 0   XYZ
    dof rx ry rz
    limits (-20.0 45.0)
           (-30.0 30.0)
           (-30.0 30.0)
  end
  begin
     id 15 
     name upperneck
     direction -0.00100185 0.982732 -0.185031   
     length 1.79988   
     axis 0 0 0   XYZ
    dof rx ry rz
    limits (-20.0 45.0)
           (-30.0 30.0)
           (-30.0 30.0)
  end
  begin
     id 16
     name head
     direction 0.00403747 0.997539 -0.0700022  
     length 1.81696  
     axis 0 0 0   XYZ
    dof rx ry rz
    limits (-20.0 45.0)
           (-30.0 30.0)
           (-30.0 30.0)
  end
  begin
     id 17 
     name lclavicle
     direction 0.959882 0.242905 -0.140082  
     length 3.87755  
     axis 0 0 0   XYZ
    dof ry rz
    limits (-20.0 10.0)
           (0.0 20.0)
  end
  begin
     id 18 
     name lhumerus
     direction 1 -4.4895e-011 3.76166e-027   
     length 5.14601   
     axis 180 -30 -90   XYZ
    dof rx ry rz
    limits (-60.0 90.0)
           (-90.0 90.0)
           (-90.0 90.0)
  end
  begin
     id 19
     name lradius
     direction 1 -4.48966e-011 -3.24039e-027   
     length 3.64452   
     axis 180 -30 -90   XYZ
    dof rx
    limits (-10.0 170.0)
  end
  begin
     id 20
     name lwrist
     direction 1 -4.48999e-011 2.57119e-027   
     length 1.82226   
     axis -1.61769e-015 90 90   XYZ
    dof ry
    limits (-180.0 0.0)
 end
  begin
     id 21 
     name lhand
     direction 1 -4.48961e-011 5.13984e-027   
     length 0.56228   
     axis -3.27988e-015 90 90   XYZ
    dof rx rz
    limits (-90.0 90.0)
           (-45.0 45.0)
  end
  begin
     id 22 
     name lfingers
     direction 1 -4.48991e-011 1.02836e-026   
     length 0.453325   
     axis -6.5598e-015 90 90   XYZ
    dof rx
    limits (0.0 90.0)
  end
  begin
     id 23
     name lthumb
     direction 0.707107 -6.34956e-011 0.707107   
     length 0.650886   
     axis -90 45 2.19363e-014   XYZ
    dof rx rz
    limits (-45.0 45.0)
           (-45.0 45.0)
  end
  begin
     id 24 
     name rclavicle
     direction -0.929201 0.345171 -0.132073   
     length 3.55416  
     axis 0 0 0   XYZ 
    dof ry rz
    limits (-10.0 20.0)
           (-20.0 0.0)
  end
  begin
     id 25 
     name rhumerus
     direction -1 -4.48979e-011 4.53734e-027  
     length 5.33913   
     axis 180 30 90   XYZ
    dof rx ry rz
    limits (-90.0 60.0)
           (-90.0 90.0)
           (-90.0 90.0)
  end
  begin
     id 26 
     name rradius
     direction -1 -4.4896e-011 -2.24007e-027   
     length 3.56478   
     axis 180 30 90   XYZ
    dof rx
    limits (-10.0 170.0)
  end
  begin
     id 27 
     name rwrist
     direction -1 -4.48923e-011 2.56866e-027   
     length 1.78239   
     axis -1.61769e-015 -90 -90   XYZ
    dof ry
    limits (-180.0 0.0)
  end
  begin
     id 28
     name rhand
     direction -1 -4.48914e-011 5.13667e-027   
     length 0.857474   
     axis -3.27988e-015 -90 -90   XYZ
    dof rx rz
    limits (-90.0 90.0)
           (-45.0 45.0)
  end
  begin
     id 29
     name rfingers
     direction -1 -4.49112e-011 1.02998e-026   
     length 0.691318   
     axis -6.5598e-015 -90 -90   XYZ
    dof rx
    limits (0.0 90.0)
  end
  begin
     id 30
     name rthumb
     direction -0.707107 -6.34979e-011 0.707107   
     length 0.992598   
     axis -90 -45 -2.19363e-014   XYZ
    dof rx rz
    limits (-45.0 45.0)
           (-45.0 45.0)
  end
:hierarchy
  begin
    root lhipjoint rhipjoint lowerback
    lhipjoint lfemur
    lfemur ltibia
    ltibia lfoot
    lfoot ltoes
    rhipjoint rfemur
    rfemur rtibia
    rtibia rfoot
    rfoot rtoes
    lowerback upperback
    upperback thorax
    thorax lowerneck lclavicle rclavicle
    lowerneck upperneck
    upperneck head
    lclavicle lhumerus
    lhumerus lradius
    lradius lwrist
    lwrist lhand lthumb
    lhand lfingers
    rclavicle rhumerus
    rhumerus rradius
    rradius rwrist
    rwrist rhand rthumb
    rhand rfingers
  end

#!OML:ASF F:\VICON\USERDATA\INSTALL\Justin4\Justin4.ASF
:FULLY-SPECIFIED
:DEGREES
696
root -4.00072 15.4022 18.1274 3.74174 -59.7681 -5.86138
lowerback 27.0092 2.7493 -2.32544
upperback 6.35579 2.49277 -0.550846
thorax -7.93046 1.06893 -0.0741505
lowerneck -13.2397 3.13128 -6.46701
upperneck 7.3093 5.45807 -1.38151
head 4.20875 2.40239 1.00061
rclavicle -1.98785e-015 -3.73715e-014
rhumerus -19.9893 2.39013 -83.0738
rradius 133.381
rwrist 2.21896
rhand -21.5092 18.7445
rfingers 7.12502
rthumb 4.8827 -11.1793
lclavicle -1.98785e-015 -3.73715e-014
lhumerus 9.40524 1.70228 79.5063
lradius 132.193
lwrist 8.63834
lhand -13.2239 5.77997
lfingers 7.12502
lthumb 12.8774 35.3627
rfemur -37.0667 -16.6757 9.45087
rtibia 79.4883
rfoot -20.203 4.28161
rtoes -9.38155
lfemur -34.3527 7.78364 5.1968
ltibia 63.3501
lfoot -8.86778 -13.8126
ltoes -30.47
697
root -3.95179 15.2661 18.0304 3.97139 -59.3349 -5.88171
lowerback 27.8304 2.96174 -2.35015
upperback 6.54926 2.6494 -1.10331
thorax -8.09542 1.12828 -0.748927
lowerneck -12.9921 2.77134 -6.48814
upperneck 6.5214 4.89983 -1.04011
head 3.92886 2.17673 1.05524
rclavicle 3.97569e-015 5.48646e-014
rhumerus -19.9983 1.10914 -82.9368
rradius 133.98
rwrist 1.75954
rhand -22.1342 18.5864
rfingers 7.12502
rthumb 4.27917 -11.3503
lclavicle 3.97569e-015 5.48646e-014
lhumerus 10.793 1.51998 78.8708
lradius 132.016
lwrist 9.36627
lhand -12.929 5.95877
lfingers 7.12502
lthumb 13.1617 35.5234
rfemur -38.3277 -16.9332 9.43935
rtibia 81.7254
rfoot -19.2895 0.539489
rtoes -7.083
lfemur -35.9592 8.31604 5.52469
ltibia 64.6211
lfoot -8.93448 -14.5085
ltoes -30.8701
698
root -3.91647 15.1294 17.9543 3.7376 -58.8467 -5.51393
lowerback 28.5103 2.9761 -2.59092
upperback 6.79647 2.50213 -1.56621
thorax -8.13682 1.0473 -1.09425
lowerneck -12.604 2.66366 -6.67759
upperneck 5.42082 4.71809 -0.948799
head 3.91493 2.11557 1.21528
rclavicle 6.44062e-014 5.56597e-015
rhumerus -19.93 0.513216 -82.8197
rradius 134.519
rwrist 1.05309
rhand -22.4588 18.3868
rfingers 7.12502
rthumb 3.96574 -11.556
lclavicle 6.44062e-014 5.56597e-015
lhumerus 11.9495 1.97812 78.0785
lradius 131.855
lwrist 10.0395
lhand -13.1713 6.40321
lfingers 7.12502
lthumb 12.928 35.9827
rfemur -39.1705 -17.2627 8.8979
rtibia 83.9495
rfoot -18.6142 -1.63344
rtoes -3.26916
lfemur -37.392 8.80501 5.61324
ltibia 65.9986
lfoot -9.47194 -15.3307
ltoes -32.3436
699
root -3.87909 14.9895 17.8794 3.53169 -58.2044 -5.11452
lowerback 29.2188 2.7995 -2.97857
upperback 6.97384 2.09044 -1.81169
thorax -8.28296 0.847772 -1.02276
lowerneck -12.1111 2.74149 -7.46671
upperneck 4.77159 4.86457 -0.769801
head 3.56071 2.20463 1.39761
rclavicle -1.31198e-014 3.10104e-014
rhumerus -19.7559 0.307942 -82.2503
rradius 135.117
rwrist -0.17535
rhand -22.2472 18.1341
rfingers 7.12502
rthumb 4.17009 -11.8048
lclavicle -1.31198e-014 3.10104e-014
lhumerus 12.8456 3.22474 77.3625
lradius 131.621
lwrist 10.6919
lhand -13.128 6.01865
lfingers 7.12502
lthumb 12.9698 35.5955
rfemur -39.8708 -17.7913 8.11716
rtibia 86.1682
rfoot -18.3121 -2.12295
rtoes 4.65958
lfemur -39.0036 9.07814 5.61992
ltibia 67.4281
lfoot -9.3494 -16.1274
ltoes -30.9584
700
root -3.84123 14.8445 17.8095 3.22704 -57.4725 -4.4319
lowerback 29.7855 2.5051 -3.6241
upperback 7.00123 1.47767 -1.9246
thorax -8.53362 0.566485 -0.576034
lowerneck -10.9962 2.97252 -8.69362
upperneck 3.87594 5.18966 -0.51451
head 2.98669 2.39363 1.66337
rclavicle 1.78906e-014 1.59028e-014
rhumerus -19.8757 0.523742 -81.2523
rradius 135.803
rwrist -1.6672
rhand -22.0115 17.9625
rfingers 7.12502
rthumb 4.39766 -11.9718
lclavicle 1.78906e-014 1.59028e-014
lhumerus 12.9139 4.66742 77.0097
lradius 131.688
lwrist 10.9716
lhand -13.5219 6.19585
lfingers 7.12502
lthumb 12.59 35.7965
rfemur -40.5658 -18.4113 6.95626
rtibia 88.3542
rfoot -17.8302 -1.75552
rtoes 14.9831
lfemur -40.787 9.1682 5.38888
ltibia 68.8446
lfoot -9.06253 -16.8365
ltoes -28.434
701
root -3.80417 14.6805 17.7337 3.26384 -56.7636 -4.24167
lowerback 30.3903 2.51506 -3.49617
upperback 7.38815 1.42724 -2.36806
thorax -8.36728 0.522569 -1.13778
lowerneck -11.2387 2.71535 -8.72996
upperneck 3.42106 4.84623 -0.266466
head 2.88614 2.24941 1.73252
rclavicle -7.15625e-015 -5.56597e-015
rhumerus -19.7576 -0.837969 -80.6181
rradius 136.554
rwrist -2.77703
rhand -21.9654 17.8613
rfingers 7.12502
rthumb 4.44217 -12.0722
lclavicle -7.15625e-015 -5.56597e-015
lhumerus 13.9863 3.9853 76.2649
lradius 131.589
lwrist 8.69871
lhand -16.5484 9.09911
lfingers 7.12502
lthumb 9.6711 38.8571
rfemur -41.2771 -18.8882 6.18269
rtibia 90.4759
rfoot -16.8628 -1.96362
rtoes 19.7734
lfemur -42.5482 9.48315 5.48922
ltibia 70.3022
lfoot -9.47798 -17.6047
ltoes -28.4499
702
root -3.76827 14.5031 17.6521 3.41338 -55.9996 -4.30068
lowerback 31.2034 2.46113 -3.48575
upperback 7.55858 1.30565 -2.35942
thorax -8.55794 0.458055 -1.10811
lowerneck -10.9429 2.5681 -9.43909
upperneck 2.98755 4.69543 -0.223612
head 2.6755 2.18263 1.8464
rclavicle 2.46493e-014 1.11319e-014
rhumerus -19.9106 -1.5513 -79.4681
rradius 137.235
rwrist -3.55546
rhand -22.0317 17.6522
rfingers 7.12502
rthumb 4.37819 -12.2826
lclavicle 2.46493e-014 1.11319e-014
lhumerus 14.8483 4.96808 75.7213
lradius 131.496
lwrist 9.94214
lhand -16.7492 10.0849
lfingers 7.12502
lthumb 9.47735 39.8518
rfemur -41.9691 -19.5299 5.65492
rtibia 92.4914
rfoot -15.6509 -2.2199
rtoes 19.4286
lfemur -44.2705 9.82587 5.78504
ltibia 71.7473
lfoot -9.99628 -18.5204
ltoes -29.2747
703
root -3.73309 14.3268 17.5775 3.40886 -55.1619 -4.19959
lowerback 31.7844 2.29933 -3.18363
upperback 7.87083 1.13963 -2.48011
thorax -8.46421 0.365475 -1.36488
lowerneck -10.47 2.40852 -9.86404
upperneck 2.39448 4.46907 -0.38493
head 2.39271 2.0833 1.83043
rclavicle -1.35174e-014 -1.43125e-014
rhumerus -20.1737 -2.40166 -78.1705
rradius 137.97
rwrist -3.96705
rhand -22.4236 17.4599
rfingers 7.12502
rthumb 3.99975 -12.4823
lclavicle -1.35174e-014 -1.43125e-014
lhumerus 16.0958 6.40186 75.2059
lradius 131.339
lwrist 12.9736
lhand -15.0861 8.60608
lfingers 7.12502
lthumb 11.0817 38.2935
rfemur -42.5372 -20.4111 4.94257
rtibia 94.3075
rfoot -14.6837 -2.0906
rtoes 16.2262
lfemur -45.9247 9.83176 6.00283
ltibia 73.1324
lfoot -10.2506 -19.5464
ltoes -27.9433
704
root -3.69553 14.1483 17.5067 3.44063 -54.2913 -4.14087
lowerback 32.8807 2.27366 -2.91204
upperback 7.68055 1.12277 -2.52468
thorax -8.392 0.362871 -1.48163
lowerneck -10.1238 2.15299 -10.1688
upperneck 1.91831 4.11187 -0.510897
head 2.18439 1.91807 1.80775
rclavicle 2.62396e-014 3.33958e-014
rhumerus -20.5993 -3.55498 -76.4494
rradius 138.803
rwrist -4.73282
rhand -22.7643 17.228
rfingers 7.12502
rthumb 3.67076 -12.7201
lclavicle 2.62396e-014 3.33958e-014
lhumerus 17.1014 7.16615 75.095
lradius 131.259
lwrist 14.65
lhand -13.7994 7.18188
lfingers 7.12502
lthumb 12.3225 36.7988
rfemur -43.0173 -21.4183 4.20289
rtibia 95.8936
rfoot -14.3854 -1.34299
rtoes 9.03952
lfemur -47.6273 9.72056 6.15622
ltibia 74.503
lfoot -10.7732 -20.1778
ltoes -26.3168
705
root -3.65784 13.9578 17.4333 3.57328 -53.3992 -4.09368
lowerback 33.3795 2.13965 -2.6181
upperback 8.05024 1.01768 -2.52439
thorax -8.1766 0.30109 -1.60265
lowerneck -10.0684 1.92098 -10.4495
upperneck 1.4267 3.80465 -0.375583
head 2.02019 1.78738 1.87908
rclavicle -2.70347e-014 1.51076e-014
rhumerus -20.5161 -4.62087 -75.1912
rradius 139.403
rwrist -5.60313
rhand -22.6232 17.0664
rfingers 7.12502
rthumb 3.80699 -12.8794
lclavicle -2.70347e-014 1.51076e-014
lhumerus 17.958 7.7338 74.8012
lradius 131.248
lwrist 14.0917
lhand -14.095 8.70102
lfingers 7.12502
lthumb 12.0375 38.3348
rfemur -43.5228 -22.4014 3.45387
rtibia 97.301
rfoot -15.0476 0.495539
rtoes 0.612308
lfemur -49.5714 9.72756 6.21133
ltibia 75.9137
lfoot -11.5418 -20.4002
ltoes -26.1475
706
root -3.62536 13.7687 17.3626 3.3287 -52.6987 -3.59882
lowerback 34.0628 2.24658 -2.985
upperback 8.17075 1.02366 -2.20824
thorax -8.30631 0.299954 -1.08717
lowerneck -9.86981 1.72538 -10.8701
upperneck 1.10508 3.55835 -0.497311
head 1.88672 1.67081 1.89271
rclavicle 3.18055e-014 -2.70347e-014
rhumerus -20.7476 -5.26181 -73.4221
rradius 139.944
rwrist -6.47451
rhand -22.1561 16.9727
rfingers 7.12502
rthumb 4.25804 -12.9645
lclavicle 3.18055e-014 -2.70347e-014
lhumerus 18.1773 8.74801 74.9928
lradius 131.019
lwrist 14.3384
lhand -13.9397 7.8662
lfingers 7.12502
lthumb 12.1873 37.4912
rfemur -44.093 -23.3495 2.54413
rtibia 98.4959
rfoot -16.3848 2.22394
rtoes -9.14195
lfemur -51.3185 9.74877 6.00854
ltibia 77.3206
lfoot -12.3359 -20.6252
ltoes -25.8162
707
root -3.57704 13.5631 17.269 4.78708 -51.9903 -5.07523
lowerback 34.7824 1.99945 -2.12445
upperback 8.27313 1.01117 -1.84397
thorax -8.45915 0.279908 -1.16395
lowerneck -9.74404 1.62336 -10.6835
upperneck 0.65231 3.37313 -0.73329
head 1.72791 1.59208 1.76249
rclavicle 1.35174e-014 4.69132e-014
rhumerus -20.7715 -5.81316 -72.157
rradius 140.352
rwrist -7.13159
rhand -21.892 16.9325
rfingers 7.12502
rthumb 4.5131 -12.9994
lclavicle 1.35174e-014 4.69132e-014
lhumerus 18.3572 9.46709 74.539
lradius 131.25
lwrist 15.1845
lhand -14.3463 8.39899
lfingers 7.12502
lthumb 11.7952 38.0468
rfemur -45.3935 -23.9533 3.6443
rtibia 99.7423
rfoot -18.0685 2.48749
rtoes -20.4007
lfemur -53.4679 10.3108 7.24196
ltibia 78.8125
lfoot -12.7826 -21.2709
ltoes -25.419
708
root -3.55941 13.3731 17.2307 3.93997 -51.6038 -4.11194
lowerback 35.0679 2.05136 -2.4541
upperback 8.63488 0.938907 -1.79405
thorax -8.0432 0.235373 -0.920211
lowerneck -9.77203 1.42897 -10.5698
upperneck 0.322693 3.09194 -0.783218
head 1.64026 1.46421 1.71018
rclavicle -1.98785e-014 -3.18055e-015
rhumerus -20.6922 -6.36365 -70.8624
rradius 140.553
rwrist -7.74234
rhand -21.9373 17.1304
rfingers 7.12502
rthumb 4.4693 -12.8025
lclavicle -1.98785e-014 -3.18055e-015
lhumerus 18.3627 10.073 74.2302
lradius 131.617
lwrist 16.2315
lhand -14.8346 9.23698
lfingers 7.12502
lthumb 11.3243 38.9113
rfemur -45.6166 -24.8811 2.15415
rtibia 101.082
rfoot -19.9025 2.96415
rtoes -21.2357
lfemur -54.6492 10.4741 6.63171
ltibia 80.354
lfoot -14.0663 -21.2172
ltoes -25.659
709
root -3.53874 13.1799 17.1912 3.07259 -51.3113 -2.94894
lowerback 35.2733 2.30357 -3.06816
upperback 8.96549 1.05145 -1.50477
thorax -7.76133 0.275188 -0.332738
lowerneck -9.84998 1.14639 -10.8314
upperneck 0.11317 2.74239 -0.697577
head 1.60075 1.29849 1.77028
rclavicle 4.53229e-014 -2.62396e-014
rhumerus -20.7331 -6.95979 -69.0104
rradius 140.756
rwrist -8.46724
rhand -21.9174 17.2392
rfingers 7.12502
rthumb 4.48858 -12.6932
lclavicle 4.53229e-014 -2.62396e-014
lhumerus 18.2806 10.9505 74.5323
lradius 131.623
lwrist 16.6864
lhand -14.2195 8.41781
lfingers 7.12502
lthumb 11.9174 38.0586
rfemur -46.0227 -25.9072 0.164213
rtibia 102.753
rfoot -20.9366 5.17013
rtoes -18.7169
lfemur -56.0046 10.8821 5.8109
ltibia 81.9462
lfoot -14.9721 -21.2419
ltoes -25.6369
710
root -3.50263 12.9802 17.1361 2.70529 -51.1739 -2.38641
lowerback 35.41 2.24471 -2.86686
upperback 9.38507 1.00826 -1.65814
thorax -7.34449 0.24165 -0.581673
lowerneck -9.76804 1.03769 -10.3308
upperneck -0.439166 2.50581 -0.515054
head 1.41893 1.21043 1.7227
rclavicle 5.96354e-014 -2.06736e-014
rhumerus -20.328 -7.7972 -68.3432
rradius 140.783
rwrist -8.65857
rhand -22.0032 17.1194
rfingers 7.12502
rthumb 4.40571 -12.8147
lclavicle 5.96354e-014 -2.06736e-014
lhumerus 18.5543 12.0201 74.1168
lradius 131.386
lwrist 16.8975
lhand -13.1975 7.17644
lfingers 7.12502
lthumb 12.9028 36.7576
rfemur -46.8715 -26.7684 -1.24372
rtibia 104.519
rfoot -21.5936 8.72094
rtoes -15.8673
lfemur -57.5511 11.5781 5.47645
ltibia 83.5638
lfoot -15.1758 -21.5682
ltoes -24.2999
